<?xml version="1.0" encoding="utf-8"?>
<!-- Generator: Adobe Illustrator 23.0.2, SVG Export Plug-In . SVG Version: 6.00 Build 0)  -->
<svg version="1.1" id="Capa_1" xmlns="http://www.w3.org/2000/svg" xmlns:xlink="http://www.w3.org/1999/xlink" x="0px" y="0px"
	 viewBox="0 0 48 48" style="enable-background:new 0 0 48 48;" xml:space="preserve">
<style type="text/css">
	.st0{fill:#F7DF1E;}
</style>
<g>
	<rect class="st0" width="48" height="48"/>
	<path d="M32.2,37.5c1,1.6,2.2,2.7,4.4,2.7c1.9,0,3.1-0.9,3.1-2.2c0-1.5-1.2-2.1-3.3-3l-1.1-0.5c-3.3-1.4-5.4-3.1-5.4-6.8
		c0-3.4,2.6-6,6.6-6c2.9,0,4.9,1,6.4,3.6l-3.5,2.3c-0.8-1.4-1.6-1.9-2.9-1.9c-1.3,0-2.2,0.8-2.2,1.9c0,1.4,0.8,1.9,2.8,2.7l1.1,0.5
		c3.8,1.6,6,3.3,6,7.1c0,4.1-3.2,6.3-7.5,6.3c-4.2,0-6.9-2-8.2-4.6L32.2,37.5z M16.3,37.9c0.7,1.3,1.4,2.3,2.9,2.3
		c1.5,0,2.4-0.6,2.4-2.8V22h4.5v15.4c0,4.7-2.7,6.8-6.7,6.8c-3.6,0-5.7-1.9-6.8-4.1L16.3,37.9z"/>
</g>
</svg>
