<?xml version="1.0" encoding="utf-8"?>
<!-- Generator: Adobe Illustrator 23.0.2, SVG Export Plug-In . SVG Version: 6.00 Build 0)  -->
<svg version="1.1" id="Capa_1" xmlns="http://www.w3.org/2000/svg" xmlns:xlink="http://www.w3.org/1999/xlink" x="0px" y="0px"
	 viewBox="0 0 48 48" style="enable-background:new 0 0 48 48;" xml:space="preserve">
<style type="text/css">
	.st0{fill-rule:evenodd;clip-rule:evenodd;fill:#88a4e6;}
</style>
<g>
	<path class="st0" d="M25.1,48l-1.3-0.4c0,0,0.2-6.5-2.2-7c-1.6-1.8,0.2-76.7,5.9-0.2c0,0-1.9,1-2.3,2.6C24.8,44.6,25.1,48,25.1,48
		L25.1,48z"/>
	<path class="st0" d="M25.1,48l-1.3-0.4c0,0,0.2-6.5-2.2-7c-1.6-1.8,0.2-76.7,5.9-0.2c0,0-1.9,1-2.3,2.6C24.8,44.6,25.1,48,25.1,48
		L25.1,48z"/>
	<path class="st0" d="M25.8,41.7c0,0,11.2-7.4,8.6-22.7C31.8,7.9,25.9,4.3,25.2,2.9c-0.7-1-1.4-2.7-1.4-2.7l0.5,31
		C24.3,31.1,23.3,40.6,25.8,41.7"/>
	<path class="st0" d="M25.8,41.7c0,0,11.2-7.4,8.6-22.7C31.8,7.9,25.9,4.3,25.2,2.9c-0.7-1-1.4-2.7-1.4-2.7l0.5,31
		C24.3,31.1,23.3,40.6,25.8,41.7"/>
	<path class="st0" d="M23.2,42.1c0,0-10.5-7.2-9.9-19.8c0.6-12.6,8-18.8,9.4-19.9c0.9-1,1-1.4,1-2.4c0.7,1.4,0.5,21,0.6,23.3
		C24.7,32.2,23.9,40.4,23.2,42.1z"/>
	<path class="st0" d="M23.2,42.1c0,0-10.5-7.2-9.9-19.8c0.6-12.6,8-18.8,9.4-19.9c0.9-1,1-1.4,1-2.4c0.7,1.4,0.5,21,0.6,23.3
		C24.7,32.2,23.9,40.4,23.2,42.1z"/>
</g>
</svg>
