<?xml version="1.0" encoding="utf-8"?>
<!-- Generator: Adobe Illustrator 23.0.2, SVG Export Plug-In . SVG Version: 6.00 Build 0)  -->
<svg version="1.1"
	 id="svg2169" inkscape:output_extension="org.inkscape.output.svg.inkscape" inkscape:version="0.45.1" sodipodi:docbase="/home/bene/Desktop" sodipodi:docname="dessin-1.svg" sodipodi:version="0.32" xmlns:cc="http://web.resource.org/cc/" xmlns:dc="http://purl.org/dc/elements/1.1/" xmlns:inkscape="http://www.inkscape.org/namespaces/inkscape" xmlns:rdf="http://www.w3.org/1999/02/22-rdf-syntax-ns#" xmlns:sodipodi="http://sodipodi.sourceforge.net/DTD/sodipodi-0.dtd" xmlns:svg="http://www.w3.org/2000/svg"
	 xmlns="http://www.w3.org/2000/svg" xmlns:xlink="http://www.w3.org/1999/xlink" x="0px" y="0px" viewBox="0 0 110.4 109.8"
	 style="enable-background:new 0 0 110.4 109.8;" xml:space="preserve">
<style type="text/css">
	.st0{fill:#88a4e6;}
</style>
<sodipodi:namedview  bordercolor="#666666" borderopacity="1.0" height="184.25197px" id="base" inkscape:current-layer="layer1" inkscape:cx="-260.46312" inkscape:cy="316.02744" inkscape:document-units="px" inkscape:pageopacity="0.0" inkscape:pageshadow="2" inkscape:window-height="624" inkscape:window-width="872" inkscape:window-x="5" inkscape:window-y="48" inkscape:zoom="0.24748737" pagecolor="#ffffff" width="131.10236px">
	</sodipodi:namedview>
<g id="layer1" transform="translate(-473.36088,-251.72485)" inkscape:groupmode="layer" inkscape:label="Calque 1">
	<g id="g1894" transform="translate(428.42338,184.2561)">
		<path id="path8615" class="st0" d="M99.8,67.5c-28,0-26.3,12.2-26.3,12.2l0,12.6h26.8V96H62.9c0,0-17.9-2-17.9,26.2
			c0,28.3,15.7,27.3,15.7,27.3h9.3v-13.1c0,0-0.5-15.7,15.4-15.7s26.5,0,26.5,0s14.9,0.2,14.9-14.4s0-24.2,0-24.2
			S129,67.5,99.8,67.5z M85,75.9c2.7,0,4.8,2.2,4.8,4.8s-2.2,4.8-4.8,4.8s-4.8-2.2-4.8-4.8S82.3,75.9,85,75.9z"/>
		<path id="path8620" class="st0" d="M100.5,177.3c28,0,26.3-12.2,26.3-12.2l0-12.6H100v-3.8h37.4c0,0,17.9,2,17.9-26.3
			c0-28.3-15.7-27.3-15.7-27.3h-9.3v13.1c0,0,0.5,15.7-15.4,15.7s-26.5,0-26.5,0s-14.9-0.2-14.9,14.4c0,14.6,0,24.2,0,24.2
			S71.3,177.3,100.5,177.3z M115.3,168.8c-2.7,0-4.8-2.2-4.8-4.8s2.2-4.8,4.8-4.8s4.8,2.2,4.8,4.8
			C120.1,166.7,118,168.8,115.3,168.8z"/>
	</g>
</g>
</svg>
