<svg enable-background="new 0 0 264 280" viewBox="0 0 264 280" xmlns="http://www.w3.org/2000/svg" xmlns:xlink="http://www.w3.org/1999/xlink"><filter id="a" height="109.8%" width="101.5%" x="-.8%" y="-2.4%"><feOffset dx="0" dy="2" in="SourceAlpha" result="shadowOffsetOuter1"/><feColorMatrix in="shadowOffsetOuter1" result="shadowMatrixOuter1" type="matrix" values="0 0 0 0 0   0 0 0 0 0   0 0 0 0 0  0 0 0 0.2 0"/><feMerge><feMergeNode in="shadowMatrixOuter1"/><feMergeNode in="SourceGraphic"/></feMerge></filter><mask id="b" height="181.3" maskUnits="userSpaceOnUse" width="196.1" x="-.4" y="42.7"><path clip-rule="evenodd" d="m56.3 116.9c-4.3-.6-7.7-4.3-7.7-8.8v-10.4c0-4.4 3.2-8.1 7.4-8.8v-4.6c0-23 18.6-41.6 41.6-41.6 23 0 41.6 18.6 41.6 41.6v4.6c4.2.7 7.4 4.4 7.4 8.8v10.4c0 4.5-3.3 8.2-7.7 8.8-1.5 14.7-10.7 27.1-23.5 33.2v13.7h3c29.5 0 53.5 23.9 53.5 53.5v6.7h-148.6v-6.7c0-29.5 23.9-53.5 53.5-53.5h3v-13.7c-12.8-6-22-18.4-23.5-33.2z" fill="#fff" fill-rule="evenodd"/></mask><mask id="c" height="58.7" maskUnits="userSpaceOnUse" width="83.2" x="56" y="101.4"><path clip-rule="evenodd" d="m56.3 116.9c-4.3-.6-7.7-4.3-7.7-8.8v-10.4c0-4.4 3.2-8.1 7.4-8.8v-4.6c0-23 18.6-41.6 41.6-41.6 23 0 41.6 18.6 41.6 41.6v4.6c4.2.7 7.4 4.4 7.4 8.8v10.4c0 4.5-3.3 8.2-7.7 8.8-1.5 14.7-10.7 27.1-23.5 33.2v13.7h3c29.5 0 53.5 23.9 53.5 53.5v6.7h-148.6v-6.7c0-29.5 23.9-53.5 53.5-53.5h3v-13.7c-12.8-6-22-18.4-23.5-33.2z" fill="#fff" fill-rule="evenodd"/></mask><mask id="d" height="81.7" maskUnits="userSpaceOnUse" width="196.1" x="31.6" y="8.3"><path clip-rule="evenodd" d="m147.5 32.1c0 9.8-8 17.8-17.8 17.8-9.8 0-17.8-8-17.8-17.8v-14.1c-13.4 1.5-23.7 5.6-23.9 16-19.2 8.1-32.7 27.1-32.7 49.3v6.7h148.6v-6.7c0-22.2-13.5-41.2-32.7-49.3-.2-10.5-10.5-14.5-23.8-16v14.1z" fill="#fff" fill-rule="evenodd"/></mask><mask id="e" height="38.5" maskUnits="userSpaceOnUse" width="55" x="102.1" y="51.5"><path clip-rule="evenodd" d="m147.5 32.1c0 9.8-8 17.8-17.8 17.8-9.8 0-17.8-8-17.8-17.8v-14.1c-13.4 1.5-23.7 5.6-23.9 16-19.2 8.1-32.7 27.1-32.7 49.3v6.7h148.6v-6.7c0-22.2-13.5-41.2-32.7-49.3-.2-10.5-10.5-14.5-23.8-16v14.1z" fill="#fff" fill-rule="evenodd"/></mask><mask id="f" height="41.1" maskUnits="userSpaceOnUse" width="98.8" x="80.2" y="17.7"><path clip-rule="evenodd" d="m147.5 32.1c0 9.8-8 17.8-17.8 17.8-9.8 0-17.8-8-17.8-17.8v-14.1c-13.4 1.5-23.7 5.6-23.9 16-19.2 8.1-32.7 27.1-32.7 49.3v6.7h148.6v-6.7c0-22.2-13.5-41.2-32.7-49.3-.2-10.5-10.5-14.5-23.8-16v14.1z" fill="#fff" fill-rule="evenodd"/></mask><mask id="g" height="8.9" maskUnits="userSpaceOnUse" width="8.9" x="52.5" y="28.5"><path clip-rule="evenodd" d="m67.3 34.1c0-5.2-4.7-8.6-10.4-8.6s-10.4 3.4-10.4 8.6 3.3 1.9 10.4 1.9 10.4 3.3 10.4-1.9z" fill="#fff" fill-rule="evenodd"/></mask><mask id="h" height="8.9" maskUnits="userSpaceOnUse" width="8.9" x="-38.1" y="28.5"><path clip-rule="evenodd" d="m-23.3 34.1c0-5.2-4.7-8.6-10.4-8.6s-10.4 3.4-10.4 8.6 3.3 1.8 10.4 1.8 10.4 3.4 10.4-1.8z" fill="#fff" fill-rule="evenodd"/></mask><mask id="i" height="208" maskUnits="userSpaceOnUse" width="196.1" x="32.3" y="52"><path clip-rule="evenodd" d="m31.6 52h196.1v208h-196.1z" fill="#fff" fill-rule="evenodd"/></mask><mask id="j" height="208" maskUnits="userSpaceOnUse" width="196.1" x="33.3" y="52"><path clip-rule="evenodd" d="m83.9 101.9c-.2 5.9.1 12.8 2.4 18.2.3.7 1.4 4.6 2.9 4.6s2.4-15.2 6.3-22.5c1.4-2.5 10.2-8.7 11-12.8 1.7 1.8 9 6.1 18.4 6.5 20.8.9 28.9-7.1 29.7-8.4 1.5.1 8.8 9.2 10.4 11.6 4.9 7.5 6 20.9 6 22.9 0 .6-.4 2.4-.2 2.9 1 2.8 2.6.1 3.1-1.2 3.9-9.7 3.7-21.4.6-31.2-.9-3-2-5.5-4-7.9-.9-1.1-1.9-2.1-3.1-3-.6-.4-1.9-1-2.3-1.6-.3-.5-.1-2.2-.2-2.8-.3-1.4-1.1-2.7-1.9-3.9-.9-1.5-1.9-3-3.1-4.3-6.2-6.8-15.1-10.2-24.3-9.7-5.6.3-10.7 2.4-16.1 3.5-5.6 1.2-10.2.4-15.3-2.1-5.4-2.4-11.1-1.7-13.9 4.3-2.3 4.8-1.3 12.3 2.7 15.9-5.7 5.2-8.8 13.4-9.1 21z" fill="#fff" fill-rule="evenodd"/></mask><g transform="translate(32 36)"><path clip-rule="evenodd" d="m56.3 116.9c-4.3-.6-7.7-4.3-7.7-8.8v-10.4c0-4.4 3.2-8.1 7.4-8.8v-4.6c0-23 18.6-41.6 41.6-41.6 23 0 41.6 18.6 41.6 41.6v4.6c4.2.7 7.4 4.4 7.4 8.8v10.4c0 4.5-3.3 8.2-7.7 8.8-1.5 14.7-10.7 27.1-23.5 33.2v13.7h3c29.5 0 53.5 23.9 53.5 53.5v6.7h-148.6v-6.7c0-29.5 23.9-53.5 53.5-53.5h3v-13.7c-12.8-6-22-18.4-23.5-33.2z" fill="#d0c6ac" fill-rule="evenodd"/><g mask="url(#b)"><path clip-rule="evenodd" d="m31.6 42.7h196.1v181.3h-196.1z" fill="#e8bb9e" fill-rule="evenodd" transform="translate(-32)"/></g><path clip-rule="evenodd" d="m56 112.6c0 23 18.6 41.6 41.6 41.6s41.6-18.6 41.6-41.6v-11.1 17.1c0 23-18.6 41.6-41.6 41.6s-41.6-18.7-41.6-41.7v-17.1z" fill-opacity=".1" fill-rule="evenodd" mask="url(#c)"/></g><g transform="translate(0 170)"><path clip-rule="evenodd" d="m147.5 32.1c0 9.8-8 17.8-17.8 17.8-9.8 0-17.8-8-17.8-17.8v-14.1c-13.4 1.5-23.7 5.6-23.9 16-19.2 8.1-32.7 27.1-32.7 49.3v6.7h148.6v-6.7c0-22.2-13.5-41.2-32.7-49.3-.2-10.5-10.5-14.5-23.8-16v14.1z" fill="#b7c1db" fill-rule="evenodd"/><g mask="url(#d)"><path clip-rule="evenodd" d="m31.6 8.3h196.1v81.7h-196.1z" fill="#162b52" fill-rule="evenodd"/></g><g clip-rule="evenodd" fill-rule="evenodd"><path d="m157.1 51.5v35.9c0 1.4-1.2 2.6-2.6 2.6-1.4 0-2.6-1.2-2.6-2.6v-33.3c1.8-.8 3.6-1.6 5.2-2.6zm-49.8 2.6v27.3c0 1.4-1.2 2.6-2.6 2.6s-2.6-1.2-2.6-2.6v-30c1.7 1.1 3.4 1.9 5.2 2.7z" fill="#f4f4f4" mask="url(#e)"/><path d="m171.2 31.4c0 15.1-20.7 27.4-41.6 27.4s-41.6-12.3-41.6-27.4c0-7 4.4-11.1 11.1-13.6-11.1 2.1-18.9 6.3-18.9 14.5 0 14.6 24.5 26.5 49.4 26.5s49.4-11.9 49.4-26.5c0-8.2-7.7-12.4-18.9-14.5 6.8 2.4 11.1 6.6 11.1 13.6z" fill-opacity=".16" mask="url(#f)"/></g></g><path d="m60.5 27.9c-1 0-1.4.7-1.5 1.5-.9 2.2-3.2 3.5-7.4 3.7-4.2-.2-6.5-1.5-7.4-3.7-.1-.8-.5-1.5-1.5-1.5-.8 0-1.5.7-1.5 1.5 0 4 4.6 6.7 10.4 6.7s10.4-2.7 10.4-6.7c0-.8-.7-1.5-1.5-1.5z" fill-opacity=".6" transform="translate(78 134)"/><g clip-rule="evenodd" fill-rule="evenodd"><path d="m16.7 26.6c0 3.3 4 5.9 8.9 5.9 4.9 0 8.9-2.7 8.9-5.9" fill-opacity=".16" transform="translate(104 122)"/><g transform="translate(92 103)"><path d="m67.3 34.1c0-5.2-4.7-8.6-10.4-8.6s-10.4 3.4-10.4 8.6 3.3 1.9 10.4 1.9 10.4 3.3 10.4-1.9z" fill="#fff"/><circle cx="56.9" cy="32.9" fill-opacity=".7" mask="url(#g)" r="4.5"/></g><g transform="translate(144 103)"><path d="m-23.3 34.1c0-5.2-4.7-8.6-10.4-8.6s-10.4 3.4-10.4 8.6 3.3 1.8 10.4 1.8 10.4 3.4 10.4-1.8z" fill="#fff"/><circle cx="-33.7" cy="32.9" fill-opacity=".7" mask="url(#h)" r="4.5"/></g><g fill-opacity=".6" transform="translate(76 82)"><path d="m75.5 35.5c-3.9-.2-8.9 1-11.4 3.8-.3.3.1.8.5.7 5.1-1.2 19.6 1 21.7 3.2.1.1.3 0 .3-.1.2-4.3-6.8-7.4-11.1-7.6"/><path d="m31 35.5c3.9-.2 8.9 1 11.4 3.8.3.3-.1.8-.5.7-5.1-1.2-19.6 1-21.7 3.2-.1.1-.3 0-.3-.1-.2-4.3 6.8-7.4 11.1-7.6"/></g></g><g mask="url(#i)"><g transform="translate(-1)"><path clip-rule="evenodd" d="m83.9 101.9c-.2 5.9.1 12.8 2.4 18.2.3.7 1.4 4.6 2.9 4.6s2.4-15.2 6.3-22.5c1.4-2.5 10.2-8.7 11-12.8 1.7 1.8 9 6.1 18.4 6.5 20.8.9 28.9-7.1 29.7-8.4 1.5.1 8.8 9.2 10.4 11.6 4.9 7.5 6 20.9 6 22.9 0 .6-.4 2.4-.2 2.9 1 2.8 2.6.1 3.1-1.2 3.9-9.7 3.7-21.4.6-31.2-.9-3-2-5.5-4-7.9-.9-1.1-1.9-2.1-3.1-3-.6-.4-1.9-1-2.3-1.6-.3-.5-.1-2.2-.2-2.8-.3-1.4-1.1-2.7-1.9-3.9-.9-1.5-1.9-3-3.1-4.3-6.2-6.8-15.1-10.2-24.3-9.7-5.6.3-10.7 2.4-16.1 3.5-5.6 1.2-10.2.4-15.3-2.1-5.4-2.4-11.1-1.7-13.9 4.3-2.3 4.8-1.3 12.3 2.7 15.9-5.7 5.2-8.8 13.4-9.1 21z" fill="#28354b" fill-rule="evenodd"/><g mask="url(#j)"><path clip-rule="evenodd" d="m33.3 52h196.1v208h-196.1z" fill-rule="evenodd"/></g><g fill="#252c2f" filter="url(#a)" transform="translate(68 92)"><path d="m67.1 43.6c0-7.7 1.3-15.2 17.5-15.2h2.2c16.1 0 17.5 7.5 17.5 15.2 0 9.5-6.2 15.2-16.5 15.2h-2c-11.1 0-18.7-6.3-18.7-15.2zm17.4-10.8c-14.4 0-14.4 5.1-14.4 11.5 0 6.8 6.4 11.5 15.6 11.5h2.3c11 0 13.3-6.3 13.3-11.5 0-6.4 0-11.5-14.4-11.5z"/><path d="m21 43.6c0-7.7 1.3-15.2 17.5-15.2h2.2c16.1 0 17.5 7.5 17.5 15.2 0 9.5-6.2 15.2-16.5 15.2h-2c-11 0-18.7-6.3-18.7-15.2zm17.4-10.8c-14.4 0-14.4 5.1-14.4 11.5 0 6.8 6.4 11.5 15.6 11.5h2.3c11 0 13.3-6.3 13.3-11.5 0-6.4 0-11.5-14.4-11.5z"/><path d="m110.9 34.8v2.1c0 1.2-1 2.1-2.2 2.1 0 0-4.4 0-4.4 2.1s-2.2-3.1-2.2-4.3v-2.1c-2.7-1-7.5-2.9-15.4-2.9-10.7 0-13.7 1.6-17 3.1l.1.1.1 1.7-2 3.8-2-1c-.4-.2-.9-.4-1.4-.5-1.4-.3-2.9-.2-4.5.2-.5.1-.9.3-1.1.3l-2 .8-1.6-4v-1.5-.1c-3.8-1.5-8.1-3.1-16.9-3.1-7.9 0-12.7 1.9-15.4 2.9v2.1c0 1.2-1.5 6.4-1.5 4.3s-5.1-2.1-5.1-2.1c-1.2 0-2.2-1-2.2-2.1v-2.1c0-1.2 1-2.1 2.2-2.1.5-.5 6.1-4.3 21.9-4.3 11.1 0 15.8 1.3 20.7 3.6.4.1 1.8.6 3.4.6 1.8-.1 3.3-.6 3.6-.7l.3-.2c4.2-2.1 7.1-3.5 20.3-3.5 15.8 0 21.4 3.8 21.9 4.3 1.4.3 2.4 1.3 2.4 2.5z"/></g></g></g><path clip-rule="evenodd" d="m55.3 260h148.6v20h-148.6z" fill="#162b52" fill-rule="evenodd"/></svg>