<?xml version="1.0" encoding="utf-8"?>
<!-- Generator: Adobe Illustrator 23.0.2, SVG Export Plug-In . SVG Version: 6.00 Build 0)  -->
<svg version="1.1" id="Capa_1" xmlns="http://www.w3.org/2000/svg" xmlns:xlink="http://www.w3.org/1999/xlink" x="0px" y="0px"
	 viewBox="0 0 264 280" style="enable-background:new 0 0 264 280;" xml:space="preserve">
<style type="text/css">
	.st0{fill-rule:evenodd;clip-rule:evenodd;fill:#D0C6AC;}
	.st1{filter:url(#Adobe_OpacityMaskFilter);}
	.st2{fill-rule:evenodd;clip-rule:evenodd;fill:#FFFFFF;}
	.st3{mask:url(#mask-6_1_);}
	.st4{fill-rule:evenodd;clip-rule:evenodd;fill:#E8BB9E;}
	.st5{filter:url(#Adobe_OpacityMaskFilter_1_);}
	.st6{mask:url(#mask-6_2_);fill-rule:evenodd;clip-rule:evenodd;fill-opacity:0.1;}
	.st7{fill-rule:evenodd;clip-rule:evenodd;fill:#B7C1DB;}
	.st8{filter:url(#Adobe_OpacityMaskFilter_2_);}
	.st9{mask:url(#react-mask-105_1_);}
	.st10{fill-rule:evenodd;clip-rule:evenodd;fill:#162B52;}
	.st11{filter:url(#Adobe_OpacityMaskFilter_3_);}
	.st12{mask:url(#react-mask-105_2_);fill-rule:evenodd;clip-rule:evenodd;fill:#F4F4F4;}
	.st13{filter:url(#Adobe_OpacityMaskFilter_4_);}
	.st14{mask:url(#react-mask-105_3_);fill-rule:evenodd;clip-rule:evenodd;fill-opacity:0.16;}
	.st15{fill-opacity:0.6;}
	.st16{fill-rule:evenodd;clip-rule:evenodd;fill-opacity:0.16;}
	.st17{filter:url(#Adobe_OpacityMaskFilter_5_);}
	.st18{mask:url(#react-mask-108_1_);fill-rule:evenodd;clip-rule:evenodd;fill-opacity:0.7;}
	.st19{filter:url(#Adobe_OpacityMaskFilter_6_);}
	.st20{mask:url(#react-mask-109_1_);fill-rule:evenodd;clip-rule:evenodd;fill-opacity:0.7;}
	.st21{fill-rule:evenodd;clip-rule:evenodd;fill-opacity:0.6;}
	.st22{filter:url(#Adobe_OpacityMaskFilter_7_);}
	.st23{mask:url(#react-mask-81_1_);}
	.st24{fill-rule:evenodd;clip-rule:evenodd;fill:#28354B;}
	.st25{filter:url(#Adobe_OpacityMaskFilter_8_);}
	.st26{mask:url(#react-mask-80_1_);}
	.st27{fill-rule:evenodd;clip-rule:evenodd;}
	.st28{filter:url(#react-filter-99);}
	.st29{fill:#252C2F;}
</style>
<filter  filterUnits="objectBoundingBox" height="109.8%" id="react-filter-99" width="101.5%" x="-0.8%" y="-2.4%">
	<feOffset  dx="0" dy="2" in="SourceAlpha" result="shadowOffsetOuter1"></feOffset>
	
		<feColorMatrix  in="shadowOffsetOuter1" result="shadowMatrixOuter1" type="matrix" values="0 0 0 0 0   0 0 0 0 0   0 0 0 0 0  0 0 0 0.2 0">
		</feColorMatrix>
	<feMerge>
		<feMergeNode  in="shadowMatrixOuter1"></feMergeNode>
		<feMergeNode  in="SourceGraphic"></feMergeNode>
	</feMerge>
</filter>
<g id="Avataaar">
	<g id="Body" transform="translate(32.000000, 36.000000)">
		<g>
			<path class="st0" d="M56.3,116.9c-4.3-0.6-7.7-4.3-7.7-8.8V97.7c0-4.4,3.2-8.1,7.4-8.8v-4.6c0-23,18.6-41.6,41.6-41.6l0,0l0,0
				c23,0,41.6,18.6,41.6,41.6l0,0v4.6c4.2,0.7,7.4,4.4,7.4,8.8v10.4c0,4.5-3.3,8.2-7.7,8.8c-1.5,14.7-10.7,27.1-23.5,33.2v13.7h3
				l0,0c29.5,0,53.5,23.9,53.5,53.5v6.7H23.3v-6.7c0-29.5,23.9-53.5,53.5-53.5l0,0h3v-13.7C67,144.1,57.8,131.7,56.3,116.9z"/>
		</g>
		<defs>
			<filter id="Adobe_OpacityMaskFilter" filterUnits="userSpaceOnUse" x="-0.4" y="42.7" width="196.1" height="181.3">
				<feColorMatrix  type="matrix" values="1 0 0 0 0  0 1 0 0 0  0 0 1 0 0  0 0 0 1 0"/>
			</filter>
		</defs>
		<mask maskUnits="userSpaceOnUse" x="-0.4" y="42.7" width="196.1" height="181.3" id="mask-6_1_">
			<g class="st1">
				<path id="path-5_1_" class="st2" d="M56.3,116.9c-4.3-0.6-7.7-4.3-7.7-8.8V97.7c0-4.4,3.2-8.1,7.4-8.8v-4.6
					c0-23,18.6-41.6,41.6-41.6l0,0l0,0c23,0,41.6,18.6,41.6,41.6l0,0v4.6c4.2,0.7,7.4,4.4,7.4,8.8v10.4c0,4.5-3.3,8.2-7.7,8.8
					c-1.5,14.7-10.7,27.1-23.5,33.2v13.7h3l0,0c29.5,0,53.5,23.9,53.5,53.5v6.7H23.3v-6.7c0-29.5,23.9-53.5,53.5-53.5l0,0h3v-13.7
					C67,144.1,57.8,131.7,56.3,116.9z"/>
			</g>
		</mask>
		<g class="st3">
			<g id="Color" transform="translate(-32.000000, 0.000000)">
				<rect x="31.6" y="42.7" class="st4" width="196.1" height="181.3"/>
			</g>
		</g>
		<defs>
			<filter id="Adobe_OpacityMaskFilter_1_" filterUnits="userSpaceOnUse" x="56" y="101.4" width="83.2" height="58.7">
				<feColorMatrix  type="matrix" values="1 0 0 0 0  0 1 0 0 0  0 0 1 0 0  0 0 0 1 0"/>
			</filter>
		</defs>
		<mask maskUnits="userSpaceOnUse" x="56" y="101.4" width="83.2" height="58.7" id="mask-6_2_">
			<g class="st5">
				<path id="path-5_2_" class="st2" d="M56.3,116.9c-4.3-0.6-7.7-4.3-7.7-8.8V97.7c0-4.4,3.2-8.1,7.4-8.8v-4.6
					c0-23,18.6-41.6,41.6-41.6l0,0l0,0c23,0,41.6,18.6,41.6,41.6l0,0v4.6c4.2,0.7,7.4,4.4,7.4,8.8v10.4c0,4.5-3.3,8.2-7.7,8.8
					c-1.5,14.7-10.7,27.1-23.5,33.2v13.7h3l0,0c29.5,0,53.5,23.9,53.5,53.5v6.7H23.3v-6.7c0-29.5,23.9-53.5,53.5-53.5l0,0h3v-13.7
					C67,144.1,57.8,131.7,56.3,116.9z"/>
			</g>
		</mask>
		<path id="Neck-Shadow" class="st6" d="M56,112.6c0,23,18.6,41.6,41.6,41.6s41.6-18.6,41.6-41.6v-11.1v17.1
			c0,23-18.6,41.6-41.6,41.6S56,141.5,56,118.5v-17.1V112.6z"/>
	</g>
	<g transform="translate(0.000000, 170.000000)">
		<g id="Hoodie">
			<path class="st7" d="M147.5,32.1c0,9.8-8,17.8-17.8,17.8l0,0c-9.8,0-17.8-8-17.8-17.8l0,0V18C98.5,19.5,88.2,23.6,88,34
				c-19.2,8.1-32.7,27.1-32.7,49.3V90h148.6v-6.7l0,0c0-22.2-13.5-41.2-32.7-49.3c-0.2-10.5-10.5-14.5-23.8-16V32.1z"/>
		</g>
		<defs>
			<filter id="Adobe_OpacityMaskFilter_2_" filterUnits="userSpaceOnUse" x="31.6" y="8.3" width="196.1" height="81.7">
				<feColorMatrix  type="matrix" values="1 0 0 0 0  0 1 0 0 0  0 0 1 0 0  0 0 0 1 0"/>
			</filter>
		</defs>
		<mask maskUnits="userSpaceOnUse" x="31.6" y="8.3" width="196.1" height="81.7" id="react-mask-105_1_">
			<g class="st8">
				<path id="react-path-104_1_" class="st2" d="M147.5,32.1c0,9.8-8,17.8-17.8,17.8l0,0c-9.8,0-17.8-8-17.8-17.8l0,0V18
					C98.5,19.5,88.2,23.6,88,34c-19.2,8.1-32.7,27.1-32.7,49.3V90h148.6v-6.7l0,0c0-22.2-13.5-41.2-32.7-49.3
					c-0.2-10.5-10.5-14.5-23.8-16V32.1z"/>
			</g>
		</mask>
		<g class="st9">
			<rect x="31.6" y="8.3" class="st10" width="196.1" height="81.7"/>
		</g>
		<defs>
			<filter id="Adobe_OpacityMaskFilter_3_" filterUnits="userSpaceOnUse" x="102.1" y="51.5" width="55" height="38.5">
				<feColorMatrix  type="matrix" values="1 0 0 0 0  0 1 0 0 0  0 0 1 0 0  0 0 0 1 0"/>
			</filter>
		</defs>
		<mask maskUnits="userSpaceOnUse" x="102.1" y="51.5" width="55" height="38.5" id="react-mask-105_2_">
			<g class="st11">
				<path id="react-path-104_2_" class="st2" d="M147.5,32.1c0,9.8-8,17.8-17.8,17.8l0,0c-9.8,0-17.8-8-17.8-17.8l0,0V18
					C98.5,19.5,88.2,23.6,88,34c-19.2,8.1-32.7,27.1-32.7,49.3V90h148.6v-6.7l0,0c0-22.2-13.5-41.2-32.7-49.3
					c-0.2-10.5-10.5-14.5-23.8-16V32.1z"/>
			</g>
		</mask>
		<path id="Straps" class="st12" d="M157.1,51.5v35.9c0,1.4-1.2,2.6-2.6,2.6l0,0c-1.4,0-2.6-1.2-2.6-2.6V54.1
			C153.7,53.3,155.5,52.5,157.1,51.5z M107.3,54.1v27.3c0,1.4-1.2,2.6-2.6,2.6s-2.6-1.2-2.6-2.6v-30
			C103.8,52.5,105.5,53.3,107.3,54.1z"/>
		<defs>
			<filter id="Adobe_OpacityMaskFilter_4_" filterUnits="userSpaceOnUse" x="80.2" y="17.7" width="98.8" height="41.1">
				<feColorMatrix  type="matrix" values="1 0 0 0 0  0 1 0 0 0  0 0 1 0 0  0 0 0 1 0"/>
			</filter>
		</defs>
		<mask maskUnits="userSpaceOnUse" x="80.2" y="17.7" width="98.8" height="41.1" id="react-mask-105_3_">
			<g class="st13">
				<path id="react-path-104_3_" class="st2" d="M147.5,32.1c0,9.8-8,17.8-17.8,17.8l0,0c-9.8,0-17.8-8-17.8-17.8l0,0V18
					C98.5,19.5,88.2,23.6,88,34c-19.2,8.1-32.7,27.1-32.7,49.3V90h148.6v-6.7l0,0c0-22.2-13.5-41.2-32.7-49.3
					c-0.2-10.5-10.5-14.5-23.8-16V32.1z"/>
			</g>
		</mask>
		<path id="Shadow" class="st14" d="M171.2,31.4c0,15.1-20.7,27.4-41.6,27.4S88,46.5,88,31.4c0-7,4.4-11.1,11.1-13.6
			C88,19.9,80.2,24.1,80.2,32.3c0,14.6,24.5,26.5,49.4,26.5S179,46.9,179,32.3c0-8.2-7.7-12.4-18.9-14.5
			C166.9,20.2,171.2,24.4,171.2,31.4z"/>
	</g>
	<g id="Face" transform="translate(76.000000, 82.000000)">
		<g transform="translate(2.000000, 52.000000)">
			<path id="Mouth" class="st15" d="M60.5,27.9c-1,0-1.4,0.7-1.5,1.5c-0.9,2.2-3.2,3.5-7.4,3.7c-4.2-0.2-6.5-1.5-7.4-3.7
				c-0.1-0.8-0.5-1.5-1.5-1.5c-0.8,0-1.5,0.7-1.5,1.5c0,4,4.6,6.7,10.4,6.7S62,33.4,62,29.4C62,28.6,61.3,27.9,60.5,27.9z"/>
		</g>
		<g transform="translate(28.000000, 40.000000)">
			<path id="Nose" class="st16" d="M16.7,26.6c0,3.3,4,5.9,8.9,5.9l0,0c4.9,0,8.9-2.7,8.9-5.9"/>
		</g>
		<g transform="translate(0.000000, 8.000000)">
			<g id="Eye" transform="translate(16.000000, 13.000000)">
				<g id="The-white-stuff">
					<path class="st2" d="M67.3,34.1c0-5.2-4.7-8.6-10.4-8.6s-10.4,3.4-10.4,8.6S49.8,36,56.9,36S67.3,39.3,67.3,34.1z"/>
				</g>
				<defs>
					<filter id="Adobe_OpacityMaskFilter_5_" filterUnits="userSpaceOnUse" x="52.5" y="28.5" width="8.9" height="8.9">
						<feColorMatrix  type="matrix" values="1 0 0 0 0  0 1 0 0 0  0 0 1 0 0  0 0 0 1 0"/>
					</filter>
				</defs>
				<mask maskUnits="userSpaceOnUse" x="52.5" y="28.5" width="8.9" height="8.9" id="react-mask-108_1_">
					<g class="st17">
						<path id="react-path-106_1_" class="st2" d="M67.3,34.1c0-5.2-4.7-8.6-10.4-8.6s-10.4,3.4-10.4,8.6S49.8,36,56.9,36
							S67.3,39.3,67.3,34.1z"/>
					</g>
				</mask>
				<circle class="st18" cx="56.9" cy="32.9" r="4.5"/>
			</g>
			<g transform="translate(68.000000, 13.000000)">
				<g id="Eyeball-Mask">
					<path class="st2" d="M-23.3,34.1c0-5.2-4.7-8.6-10.4-8.6s-10.4,3.4-10.4,8.6s3.3,1.8,10.4,1.8S-23.3,39.3-23.3,34.1z"/>
				</g>
				<defs>
					<filter id="Adobe_OpacityMaskFilter_6_" filterUnits="userSpaceOnUse" x="-38.1" y="28.5" width="8.9" height="8.9">
						<feColorMatrix  type="matrix" values="1 0 0 0 0  0 1 0 0 0  0 0 1 0 0  0 0 0 1 0"/>
					</filter>
				</defs>
				<mask maskUnits="userSpaceOnUse" x="-38.1" y="28.5" width="8.9" height="8.9" id="react-mask-109_1_">
					<g class="st19">
						<path id="react-path-107_1_" class="st2" d="M-23.3,34.1c0-5.2-4.7-8.6-10.4-8.6s-10.4,3.4-10.4,8.6s3.3,1.8,10.4,1.8
							S-23.3,39.3-23.3,34.1z"/>
					</g>
				</mask>
				<circle class="st20" cx="-33.7" cy="32.9" r="4.5"/>
			</g>
		</g>
		<g>
			<path id="Eyebrow" class="st21" d="M75.5,35.5c-3.9-0.2-8.9,1-11.4,3.8c-0.3,0.3,0.1,0.8,0.5,0.7c5.1-1.2,19.6,1,21.7,3.2
				c0.1,0.1,0.3,0,0.3-0.1C86.8,38.8,79.8,35.7,75.5,35.5"/>
			<path class="st21" d="M31,35.5c3.9-0.2,8.9,1,11.4,3.8c0.3,0.3-0.1,0.8-0.5,0.7c-5.1-1.2-19.6,1-21.7,3.2c-0.1,0.1-0.3,0-0.3-0.1
				C19.7,38.8,26.7,35.7,31,35.5"/>
		</g>
	</g>
	<g id="Top">
		<defs>
			<filter id="Adobe_OpacityMaskFilter_7_" filterUnits="userSpaceOnUse" x="32.3" y="52" width="196.1" height="208">
				<feColorMatrix  type="matrix" values="1 0 0 0 0  0 1 0 0 0  0 0 1 0 0  0 0 0 1 0"/>
			</filter>
		</defs>
		<mask maskUnits="userSpaceOnUse" x="32.3" y="52" width="196.1" height="208" id="react-mask-81_1_">
			<g class="st22">
				<rect id="react-path-83_1_" x="31.6" y="52" class="st2" width="196.1" height="208"/>
			</g>
		</mask>
		<g class="st23">
			<g transform="translate(-1.000000, 0.000000)">
				<g id="Short-Hair">
					<path class="st24" d="M83.9,101.9c-0.2,5.9,0.1,12.8,2.4,18.2c0.3,0.7,1.4,4.6,2.9,4.6c1.5,0,2.4-15.2,6.3-22.5
						c1.4-2.5,10.2-8.7,11-12.8c1.7,1.8,9,6.1,18.4,6.5c20.8,0.9,28.9-7.1,29.7-8.4c1.5,0.1,8.8,9.2,10.4,11.6
						c4.9,7.5,6,20.9,6,22.9c0,0.6-0.4,2.4-0.2,2.9c1,2.8,2.6,0.1,3.1-1.2c3.9-9.7,3.7-21.4,0.6-31.2c-0.9-3-2-5.5-4-7.9
						c-0.9-1.1-1.9-2.1-3.1-3c-0.6-0.4-1.9-1-2.3-1.6c-0.3-0.5-0.1-2.2-0.2-2.8c-0.3-1.4-1.1-2.7-1.9-3.9c-0.9-1.5-1.9-3-3.1-4.3
						c-6.2-6.8-15.1-10.2-24.3-9.7c-5.6,0.3-10.7,2.4-16.1,3.5c-5.6,1.2-10.2,0.4-15.3-2.1C98.8,58.3,93.1,59,90.3,65
						C88,69.8,89,77.3,93,80.9C87.3,86.1,84.2,94.3,83.9,101.9z"/>
				</g>
				<defs>
					<filter id="Adobe_OpacityMaskFilter_8_" filterUnits="userSpaceOnUse" x="33.3" y="52" width="196.1" height="208">
						<feColorMatrix  type="matrix" values="1 0 0 0 0  0 1 0 0 0  0 0 1 0 0  0 0 0 1 0"/>
					</filter>
				</defs>
				<mask maskUnits="userSpaceOnUse" x="33.3" y="52" width="196.1" height="208" id="react-mask-80_1_">
					<g class="st25">
						<path id="react-path-82_1_" class="st2" d="M83.9,101.9c-0.2,5.9,0.1,12.8,2.4,18.2c0.3,0.7,1.4,4.6,2.9,4.6
							c1.5,0,2.4-15.2,6.3-22.5c1.4-2.5,10.2-8.7,11-12.8c1.7,1.8,9,6.1,18.4,6.5c20.8,0.9,28.9-7.1,29.7-8.4
							c1.5,0.1,8.8,9.2,10.4,11.6c4.9,7.5,6,20.9,6,22.9c0,0.6-0.4,2.4-0.2,2.9c1,2.8,2.6,0.1,3.1-1.2c3.9-9.7,3.7-21.4,0.6-31.2
							c-0.9-3-2-5.5-4-7.9c-0.9-1.1-1.9-2.1-3.1-3c-0.6-0.4-1.9-1-2.3-1.6c-0.3-0.5-0.1-2.2-0.2-2.8c-0.3-1.4-1.1-2.7-1.9-3.9
							c-0.9-1.5-1.9-3-3.1-4.3c-6.2-6.8-15.1-10.2-24.3-9.7c-5.6,0.3-10.7,2.4-16.1,3.5c-5.6,1.2-10.2,0.4-15.3-2.1
							C98.8,58.3,93.1,59,90.3,65C88,69.8,89,77.3,93,80.9C87.3,86.1,84.2,94.3,83.9,101.9z"/>
					</g>
				</mask>
				<g class="st26">
					<g transform="translate(0.000000, 0.000000) ">
						<rect x="33.3" y="52" class="st27" width="196.1" height="208"/>
					</g>
				</g>
				<g transform="translate(62.000000, 85.000000)">
					<g id="Wayfarers" transform="translate(6.000000, 7.000000)" class="st28">
						<path id="Left_1_" class="st29" d="M67.1,43.6c0-7.7,1.3-15.2,17.5-15.2h2.2c16.1,0,17.5,7.5,17.5,15.2
							c0,9.5-6.2,15.2-16.5,15.2h-2C74.7,58.8,67.1,52.5,67.1,43.6z M84.5,32.8c-14.4,0-14.4,5.1-14.4,11.5
							c0,6.8,6.4,11.5,15.6,11.5h2.3c11,0,13.3-6.3,13.3-11.5c0-6.4,0-11.5-14.4-11.5H84.5z"/>
						<path id="Right_1_" class="st29" d="M21,43.6c0-7.7,1.3-15.2,17.5-15.2h2.2c16.1,0,17.5,7.5,17.5,15.2
							c0,9.5-6.2,15.2-16.5,15.2h-2C28.7,58.8,21,52.5,21,43.6z M38.4,32.8C24,32.8,24,37.9,24,44.3c0,6.8,6.4,11.5,15.6,11.5h2.3
							c11,0,13.3-6.3,13.3-11.5c0-6.4,0-11.5-14.4-11.5H38.4z"/>
						<path id="Stuff_1_" class="st29" d="M110.9,34.8v2.1c0,1.2-1,2.1-2.2,2.1c0,0-4.4,0-4.4,2.1c0,2.1-2.2-3.1-2.2-4.3v-2.1
							c-2.7-1-7.5-2.9-15.4-2.9c-10.7,0-13.7,1.6-17,3.1l0.1,0.1l0.1,1.7l-2,3.8l-2-1c-0.4-0.2-0.9-0.4-1.4-0.5
							c-1.4-0.3-2.9-0.2-4.5,0.2c-0.5,0.1-0.9,0.3-1.1,0.3l-2,0.8l-1.6-4l0-1.5l0-0.1c-3.8-1.5-8.1-3.1-16.9-3.1
							c-7.9,0-12.7,1.9-15.4,2.9v2.1c0,1.2-1.5,6.4-1.5,4.3c0-2.1-5.1-2.1-5.1-2.1c-1.2,0-2.2-1-2.2-2.1v-2.1c0-1.2,1-2.1,2.2-2.1
							c0.5-0.5,6.1-4.3,21.9-4.3c11.1,0,15.8,1.3,20.7,3.6c0.4,0.1,1.8,0.6,3.4,0.6c1.8-0.1,3.3-0.6,3.6-0.7l0.3-0.2
							c4.2-2.1,7.1-3.5,20.3-3.5c15.8,0,21.4,3.8,21.9,4.3C109.9,32.6,110.9,33.6,110.9,34.8z"/>
					</g>
				</g>
			</g>
		</g>
	</g>
</g>
<rect x="55.3" y="260" class="st10" width="148.6" height="20"/>
</svg>
