<?xml version="1.0" encoding="utf-8"?>
<!-- Generator: Adobe Illustrator 25.4.1, SVG Export Plug-In . SVG Version: 6.00 Build 0)  -->
<svg version="1.1" id="Layer_1" xmlns="http://www.w3.org/2000/svg" xmlns:xlink="http://www.w3.org/1999/xlink" x="0px" y="0px"
	 viewBox="0 0 24 24" style="enable-background:new 0 0 24 24;" xml:space="preserve">
<style type="text/css">
	.st0{clip-path:url(#SVGID_00000178914667068147833590000014263481995058806462_);}
	.st1{fill:#88CFB0;}
	.st2{fill:#F2C94C;}
	.st3{fill:#BD83CE;}
	.st4{fill:#40BE88;}
	.st5{fill:#FF7474;}
	.st6{fill:#6776F9;}
	.st7{fill:#37C2E2;}
	.st8{fill:#F2994A;}
	.st9{fill-rule:evenodd;clip-rule:evenodd;fill:#2F2F3A;}
</style>
<g>
	<defs>
		<rect id="SVGID_1_" x="2" y="2" width="20" height="20"/>
	</defs>
	<clipPath id="SVGID_00000005968676726637080410000004600074649891284363_">
		<use xlink:href="#SVGID_1_"  style="overflow:visible;"/>
	</clipPath>
	<g style="clip-path:url(#SVGID_00000005968676726637080410000004600074649891284363_);">
		<path class="st1" d="M8.9,21.5v-6h6.2v2.4c0,1.9-1.6,3.6-3.6,3.6H8.9z"/>
		<path class="st2" d="M15.2,15.4V9h6.2v2.8c0,1.9-1.6,3.6-3.6,3.6H15.2z"/>
		<path class="st3" d="M15.1,9H8.9v6.3h6.2V9z"/>
		<path class="st4" d="M2.5,8.9V6.1c0-1.9,1.6-3.6,3.6-3.6h2.7v6.4H2.5z"/>
		<path class="st5" d="M15.2,8.9V2.5h2.7c1.9,0,3.6,1.6,3.6,3.6v2.8H15.2z"/>
		<path class="st6" d="M15.1,2.5H8.9v6.3h6.2V2.5z"/>
		<path class="st7" d="M2.5,17.9v-2.4h6.2v6H6.1C4.1,21.5,2.5,19.9,2.5,17.9z"/>
		<path class="st8" d="M8.8,9H2.5v6.3h6.2V9z"/>
		<path class="st9" d="M2,17.9V6.1C2,3.8,3.8,2,6.1,2h11.9C20.2,2,22,3.8,22,6.1v5.7c0,2.3-1.8,4.1-4.1,4.1h-2.3v2.1
			c0,2.2-1.8,4.1-4.1,4.1H6.1C3.8,22,2,20.2,2,17.9z M8.2,8.3H3.1V6c0-1.6,1.3-3,3-3h2.2V8.3z M17.9,14.9h-2.2V9.5h5.2v2.4
			C20.9,13.5,19.6,14.9,17.9,14.9z M11.6,21H9.4v-4.9h5.2V18C14.6,19.6,13.2,21,11.6,21z M9.4,14.9h5.2V9.5H9.4V14.9z M15.8,8.3h5.2
			V6.1c0-1.7-1.4-3-3-3h-2.2V8.3z M14.6,8.3H9.4V3h5.2V8.3z M3,16v1.9c0,1.7,1.4,3,3,3h2.2V16H3z M8.2,14.9H3V9.5h5.2V14.9z"/>
	</g>
</g>
</svg>
