<svg enable-background="new 0 0 24 24" viewBox="0 0 24 24" xmlns="http://www.w3.org/2000/svg"><path d="m19 2.9c-1.9-1.9-4.4-2.9-7-2.9s-5.1 1-7 2.9c-3.9 3.9-3.9 10.2 0 14.1l7 7 7-7c3.9-3.9 3.9-10.2 0-14.1zm-11.5 3.9v-.8h4.4c-.5.4-1 1-1.1 1.6h-2.5c-.4 0-.8-.3-.8-.8zm8.6 3.7c0 .5-.4.8-.8.8h-1.7c-.5 0-.8.4-.8.8v1.2c0 1.4-1.1 2.5-2.5 2.5s-2.5-1.1-2.5-2.5v-2h.8c.5 0 .8.4.8.8v1.2c0 .5.4.8.8.8.5 0 .8-.4.8-.8v-1.2c0-1.4 1.1-2.5 2.5-2.5h2.5zm.4-3.7c0 .5-.4.8-.8.8h-2c-.5 0-.8.4-.8.8v.8c-.7.1-1.3.5-1.6 1v-1.8c0-1.4 1.1-2.5 2.5-2.5h2.8z" fill="var(--fill-color, var(--accent, #3867d6)"/></svg>